<?xml version="1.0" encoding="iso-8859-1"?>
<!-- Generator: Adobe Illustrator 19.0.0, SVG Export Plug-In . SVG Version: 6.00 Build 0)  -->
<svg version="1.1" id="Capa_1" xmlns="http://www.w3.org/2000/svg" xmlns:xlink="http://www.w3.org/1999/xlink" x="0px" y="0px"
	 viewBox="0 0 310.4 310.4" style="enable-background:new 0 0 310.4 310.4;" xml:space="preserve">
<g>
	<g>
		<path d="M116.8,80c-5.6-5.6-13.6-9.2-22.4-9.2S77.6,74.4,72,80c-5.6,5.6-9.2,13.6-9.2,22.4c0,8.4,3.2,16,8.8,22
			c0,0.4,0.4,0.4,0.8,0.8c5.6,5.6,13.6,9.2,22.4,9.2c8.4,0,16-3.6,22-9.6c5.6-5.6,9.2-13.6,9.2-22.4S122.4,85.6,116.8,80z
			 M102.4,110.4c-2,2-4.8,3.2-8,3.2s-6-1.2-8-3.2L86,110c-1.6-2-2.8-4.8-2.8-7.6c0-3.2,1.2-6,3.2-8s4.8-3.2,8-3.2s6,1.2,8,3.2
			s3.2,4.8,3.2,8C105.6,105.6,104.4,108.4,102.4,110.4z"/>
	</g>
</g>
<g>
	<g>
		<path d="M226,183.6c-6-1.2-12.8,0-18.4,3.6c-1.2,0.8-2.4,1.6-3.6,2c-1.2,0.4-2.4,1.2-3.6,1.6c-1.2,0.4-2.4,0.8-3.6,0.8h-0.4
			c-1.2,0-2.8,0.4-4,0.4c-4,0-7.6-0.8-10.8-2c-3.2-1.2-6.4-3.6-9.2-6c-2.4-2.4-4.8-5.6-6-9.2c-1.2-3.2-2-6.8-2-10.8s0.8-7.6,2-10.8
			c0.8-4.4,2.8-7.6,5.6-10c2.4-2.4,5.6-4.8,9.2-6c3.2-1.2,6.8-2,10.8-2c1.6,0,3.2,0,4.8,0.4c1.6,0.4,2.8,0.4,4.4,1.2
			c1.6,0.4,2.8,1.2,4,1.6c1.2,0.8,2.4,1.6,4,2.4c5.2,4,12,5.6,18,4.8c6.4-0.8,12-4,16.4-9.6c4-5.2,5.6-12,4.8-18
			c-0.8-6.4-4-12-9.6-16.4c-3.2-2.4-6.8-4.8-10.4-6.8c-3.6-2-7.6-3.6-11.6-4.8s-8-2.4-12-3.2s-8.4-1.2-12.4-1.2
			c-10.4,0-20.4,2-29.6,6c-9.6,4-18,9.6-25.2,16.8c-7.2,7.2-12.8,15.6-16.8,25.2c-3.6,9.2-6,19.2-6,29.6c0,10.4,2,20.4,6,29.6
			c4,9.6,9.6,18,16.8,25.2s15.6,12.8,25.2,16.8c9.2,3.6,19.2,6,29.6,6c3.6,0,7.6-0.4,11.2-0.8c3.6-0.4,7.2-1.2,10.8-2.4
			c3.6-1.2,7.2-2.4,10.4-4c3.6-1.6,6.8-3.6,10-5.6c5.6-3.6,9.2-9.6,10.4-15.6c1.2-6,0-12.8-3.6-18.4C238,188.4,232,184.8,226,183.6z
			 M223.6,206.8c-0.4,1.2-0.8,2-1.6,2.4c-2.4,1.6-4.8,2.8-7.2,4c-2.4,1.2-4.8,2-7.6,2.8s-5.2,1.6-8,2c-2.8,0.4-5.6,0.4-8,0.4
			c-7.6,0-15.2-1.6-21.6-4.4c-6.8-2.8-13.2-7.2-18.4-12.4c-5.2-5.2-9.6-11.6-12.4-18.4s-4.4-14-4.4-21.6c0-7.6,1.6-15.2,4.4-21.6
			c2.8-6.8,7.2-13.2,12.4-18.4s11.6-9.6,18.4-12.4s14-4.4,21.6-4.4c3.2,0,6,0.4,9.2,0.8s6,1.2,8.8,2.4c2.8,0.8,5.6,2,8.4,3.6
			c2.8,1.6,5.2,3.2,7.6,4.8c0.8,0.8,1.6,1.6,1.6,2.8c0,1.2,0,2-0.8,2.8s-1.6,1.6-2.8,1.6s-2,0-2.8-0.8c-2-1.6-4.4-2.8-6.8-4.4
			c-2.4-1.2-4.8-2.4-7.2-3.2c-2.4-0.8-4.8-1.6-7.6-2c-2.8-0.4-5.2-0.8-8-0.8c-6.4,0-12.8,1.2-18.4,3.6c-6,2.4-11.2,6-15.6,10.4
			c-4.4,4.4-8,9.6-10.4,15.6c-2.4,5.6-3.6,12-3.6,18.4c0.4,8.8,1.6,15.2,4,20.8c2.4,6,6,11.2,10.4,15.6c4.4,4.4,9.6,8,15.6,10.4
			c5.6,2.4,12,3.6,18.4,3.6c2.4,0,4.8,0,7.2-0.4h0.4c2.4-0.4,4.4-0.8,6.4-1.6c2-0.8,4.4-1.6,6.4-2.4c2.4-1.2,4.4-2,6-3.6
			c0.8-0.8,2-0.8,3.2-0.8c1.2,0.4,2,0.8,2.4,1.6C224,204.4,224,205.6,223.6,206.8z"/>
	</g>
</g>
<g>
	<g>
		<path d="M264.8,45.6C236.8,17.6,198,0,155.2,0S73.6,17.2,45.6,45.6C17.6,73.6,0,112.4,0,155.2s17.2,81.6,45.6,109.6
			c28,28,66.8,45.6,109.6,45.6s81.6-17.2,109.6-45.6c28-28,45.6-66.8,45.6-109.6S293.2,73.6,264.8,45.6z M250.4,250.4
			c-24.4,24.4-58,39.2-95.2,39.2S84.4,274.4,60,250.4c-24.4-24.4-39.2-58-39.2-95.2S36,84.4,60,60c24.4-24.4,58-39.2,95.2-39.2
			S226,36,250.4,60c24.4,24.4,39.2,58,39.2,95.2S274.4,226,250.4,250.4z"/>
	</g>
</g>
<g>
</g>
<g>
</g>
<g>
</g>
<g>
</g>
<g>
</g>
<g>
</g>
<g>
</g>
<g>
</g>
<g>
</g>
<g>
</g>
<g>
</g>
<g>
</g>
<g>
</g>
<g>
</g>
<g>
</g>
</svg>
