<?xml version="1.0" encoding="iso-8859-1"?>
<!-- Generator: Adobe Illustrator 19.0.0, SVG Export Plug-In . SVG Version: 6.00 Build 0)  -->
<svg version="1.1" id="Capa_1" xmlns="http://www.w3.org/2000/svg" xmlns:xlink="http://www.w3.org/1999/xlink" x="0px" y="0px"
	 viewBox="0 0 340 340" style="enable-background:new 0 0 340 340;" xml:space="preserve">
<g>
	<g>
		<path d="M232.4,230c-2.4-7.6-5.2-14.4-8.8-20.8c-2.8-4.8-5.6-9.2-9.2-13.6c-2.4-2.8-5.2-5.6-7.6-8.4V60c0-8-1.6-16-4.4-22.8
			C192.8,14.4,171.6,0,146.8,0c-24.8,0-46,14.4-55.6,37.2C88.4,44.4,86.8,52,86.8,60v127.6c-2.8,2.4-5.2,5.2-7.6,8.4
			c-3.6,4.4-6.4,8.8-9.2,13.6c-3.6,6.4-6.4,13.2-8,20.4c-2,7.2-2.8,14.4-2.8,22c0,12,2.4,23.2,6.8,33.6
			c4.4,10.8,11.2,20.4,19.2,28.4s17.6,14.4,28.4,19.2c10.4,4.4,21.6,6.8,33.6,6.8s23.2-2.4,33.6-6.8c10.8-4.4,20.4-11.2,28.4-19.2
			s14.4-17.6,19.2-28.4c4.4-10.4,6.8-21.6,6.8-33.6C235.2,244.4,234.4,237.2,232.4,230z M208.8,277.2c-3.2,8-8.4,15.6-14.8,22
			c-6.4,6.4-13.6,11.2-22,14.8c-8,3.2-16.8,5.2-25.6,5.2c-9.2,0-18-2-25.6-5.2c-8-3.2-15.6-8.4-22-14.8c-6.4-6.4-11.2-13.6-14.8-22
			c-3.2-8-5.2-16.8-5.2-25.6c0-6,0.8-11.6,2-16.8c1.2-5.6,3.6-10.8,6.4-15.6c2-3.6,4.4-7.2,6.8-10.4c2.8-3.2,5.6-6,8.8-8.8l3.6-3.2
			V192V60c0-5.2,1.2-10.4,2.8-15.2c2-4.4,4.4-8.4,7.6-12l0.8-0.8c3.6-3.6,8-6.8,12.8-8.8s9.6-2.8,15.2-2.8c5.2,0,10.4,1.2,15.2,2.8
			c4.8,2,9.2,4.8,12.8,8.8l0.8,0.8c3.2,3.6,6,7.6,7.6,12c2,4.8,2.8,9.6,2.8,15.2v132.4v4.8l3.6,3.2c3.2,2.8,6,5.6,8.8,8.8
			c2.4,3.2,4.8,6.8,6.8,10.4c2.8,4.8,4.8,10.4,6.4,15.6c1.2,5.2,2,10.8,2,16.8C214,260.8,212,269.6,208.8,277.2z"/>
	</g>
</g>
<g>
	<g>
		<path d="M254.4,118H224c-5.6,0-10.4,4.4-10.4,10.4c0,5.6,4.8,10.4,10.4,10.4h30.4c5.6,0,10.4-4.4,10.4-10.4
			C264.8,122.8,260.4,118,254.4,118z"/>
	</g>
</g>
<g>
	<g>
		<path d="M197.2,238.4c-1.2-4-2.8-8-4.8-12s-4.8-7.2-7.6-10.4c-3.2-3.2-6.4-6-10-8.4l-3.6-2.4v-4V60c0-13.6-10.4-24.4-24.4-24.4
			c-3.2,0-6.4,0.8-9.2,2c-9.2,4-15.2,12.4-15.2,22.4v141.2v4l-3.6,2.4c-3.6,2.4-7.2,5.2-10,8.4c-3.2,3.2-5.6,6.8-7.6,10.4
			c-2,3.6-3.6,8-4.8,12s-1.6,8.4-1.6,12.8c0,6.8,1.6,13.6,4,20c2.8,6.4,6.4,12,11.2,16.8s10.4,8.8,16.8,11.2c6,2.4,12.8,4,20,4
			c6.8,0,13.6-1.6,20-4c6.4-2.8,12-6.4,16.8-11.2c4.8-4.8,8.8-10.4,11.2-16.8c2.4-6,4-12.8,4-20
			C198.8,246.8,198.4,242.4,197.2,238.4z M175.6,263.6c-1.6,3.6-4,7.2-6.8,10s-6.4,5.2-10,6.8c-3.6,1.6-7.6,2.4-12,2.4
			c-4.4,0-8.4-0.8-12-2.4c-3.6-1.6-7.2-4-10-6.8s-5.2-6.4-6.8-10c-1.6-3.6-2.4-7.6-2.4-12c0-2.8,0.4-5.6,0.8-8
			c0.8-2.8,1.6-5.2,2.8-7.2c1.2-2.4,2.8-4.4,4.8-6.4c1.6-2,4-3.6,6-5.2l8.4-5.2l4.8-3.2v-5.6v-10V60c0-0.4,0-0.8,0.4-1.2
			c0-0.4,0.4-0.8,0.8-1.2l0.4-0.4c0.4,0,0.4-0.4,0.8-0.4s0.8-0.4,1.6-0.4c0.8,0,1.6,0.4,2,0.8l0.4,0.4c0.4,0.4,0.8,0.8,0.8,1.2
			c0,0.4,0.4,0.8,0.4,1.2v141.2v10v5.6l4.8,3.2l8.4,5.2c2.4,1.6,4.4,3.2,6,5.2c2,2,3.2,4,4.8,6.4c1.2,2.4,2,4.8,2.8,7.2
			s0.8,5.2,0.8,8C178,256,177.2,260,175.6,263.6z"/>
	</g>
</g>
<g>
	<g>
		<path d="M270.4,153.6H224c-5.6,0-10.4,4.4-10.4,10.4c0,5.6,4.4,10.4,10.4,10.4h46.4c5.6,0,10.4-4.4,10.4-10.4
			C280.4,158,276,153.6,270.4,153.6z"/>
	</g>
</g>
<g>
	<g>
		<path d="M254.4,47.2H224c-5.6,0-10.4,4.4-10.4,10.4S218.4,68,224,68h30.4c5.6,0,10.4-4.4,10.4-10.4
			C264.8,52,260.4,47.2,254.4,47.2z"/>
	</g>
</g>
<g>
	<g>
		<path d="M270.4,82.8H224c-5.6,0-10.4,4.4-10.4,10.4c0,5.6,4.4,10.4,10.4,10.4h46.4c5.6,0,10.4-4.4,10.4-10.4
			C280.4,87.2,276,82.8,270.4,82.8z"/>
	</g>
</g>
<g>
</g>
<g>
</g>
<g>
</g>
<g>
</g>
<g>
</g>
<g>
</g>
<g>
</g>
<g>
</g>
<g>
</g>
<g>
</g>
<g>
</g>
<g>
</g>
<g>
</g>
<g>
</g>
<g>
</g>
</svg>
