<?xml version="1.0" encoding="iso-8859-1"?>
<!-- Generator: Adobe Illustrator 19.0.0, SVG Export Plug-In . SVG Version: 6.00 Build 0)  -->
<svg version="1.1" id="Capa_1" xmlns="http://www.w3.org/2000/svg" xmlns:xlink="http://www.w3.org/1999/xlink" x="0px" y="0px"
	 viewBox="0 0 355.6 355.6" style="enable-background:new 0 0 355.6 355.6;" xml:space="preserve">
<g>
	<g>
		<path d="M109.4,34c-6,0.4-10.4,4.8-10.4,10.4v28.8c0,5.6,4.4,10.4,10.4,10.4c5.6,0,10.4-4.4,10.4-10.4V44.4
			C119.8,38.8,115.4,34,109.4,34z"/>
	</g>
</g>
<g>
	<g>
		<path d="M281,0c-5.6,0-10.4,4.4-10.4,10.4V100c0,5.6,4.4,10.4,10.4,10.4s10.4-4.4,10.4-10.4V10.4C291,4.8,286.6,0,281,0z"/>
	</g>
</g>
<g>
	<g>
		<path d="M143,0c-5.6,0-10.4,4.4-10.4,10.4v60.8c0,5.6,4.4,10.4,10.4,10.4c5.6,0,10.4-4.4,10.4-10.4V10.4C153.4,4.8,148.6,0,143,0z
			"/>
	</g>
</g>
<g>
	<g>
		<path d="M74.2,0c-6,0-10.4,4.8-10.4,10.4V100c0,5.6,4.4,10.4,10.4,10.4S84.6,106,84.6,100V10.4C84.6,4.8,80.2,0,74.2,0z"/>
	</g>
</g>
<g>
	<g>
		<path d="M280.2,124.4C252.6,98.8,217,82.8,177.4,82.8c-40.4,0-76.8,16.4-103.2,42.8C47.8,152,31.8,188,31.4,228v0.4
			c0,5.6,4.8,10.4,10.4,10.4c5.6,0,10.4-4.8,10.4-10.4c0-6.4,2.8-12.4,6.8-16.8c4.4-4.4,10-6.8,16.8-6.8c6.4,0,12.4,2.8,16.8,6.8
			c4.4,4.4,6.8,10,6.8,16.8c0,5.6,4.8,10.4,10.4,10.4s10.4-4.8,10.4-10.4c0-6.4,2.8-12.4,6.8-16.8c4.4-4.4,10-6.8,16.8-6.8
			c6.4,0,12.4,2.8,16.8,6.8c4.4,4.4,6.8,10,6.8,16.8v96.8c0,0.4,0,0.8,0,0.8c0,8,3.2,15.6,8.8,20.8c5.2,5.2,12.8,8.8,20.8,8.8
			s15.6-3.2,20.8-8.8c5.2-5.2,8.8-12.8,8.8-20.8c0-5.6-4.8-10.4-10.4-10.4c-5.6,0-10.4,4.8-10.4,10.4c0,2.4-0.8,4.8-2.4,6.4
			c-1.6,1.6-3.6,2.4-6,2.4c-2.4,0-4.8-0.8-6-2.4c-1.6-1.6-2.4-3.6-2.4-6c0-0.4,0-0.4,0-0.8v-96.8c0-6.4,2.8-12.4,6.8-16.8
			c4.4-4.4,10-6.8,16.8-6.8c6.4,0,12.4,2.8,16.8,6.8c4.4,4.4,6.8,10,6.8,16.8c0,5.6,4.8,10.4,10.4,10.4c5.6,0,10.4-4.8,10.4-10.4
			c0-6.4,2.8-12.4,6.8-16.8c4.4-4.4,10-6.8,16.8-6.8c6,0,11.6,2.4,15.6,6c4.4,3.6,7.2,8.8,7.6,14.8c0.8,5.2,5.2,9.2,10.4,9.2
			c5.6,0,10-4.8,10-10.4C323,185.6,306.2,150,280.2,124.4z M279.4,184.4c-12,0-23.2,4.8-31.2,12.8c-0.8,0.8-2,2-2.8,2.8
			c-0.8-1.2-1.6-2-2.8-2.8c-8-8-19.2-12.8-31.2-12.8s-23.2,4.8-31.2,12.8c-0.8,0.8-2,2-2.8,2.8c-0.8-1.2-1.6-2-2.8-2.8
			c-8-8-19.2-12.8-31.2-12.8s-23.2,4.8-31.2,12.8c-0.8,0.8-2,2-2.8,2.8c-0.8-1.2-1.6-2-2.8-2.8c-8-8-19.2-12.8-31.2-12.8
			c-6,0-11.6,1.2-16.8,3.2c6.4-18,16.4-34.4,30-47.6c22.8-22.8,54-36.8,88.4-36.8c34,0,64.8,13.6,87.2,35.2
			c14,13.6,24.8,30.4,31.2,48.8C290.6,185.6,285,184.4,279.4,184.4z"/>
	</g>
</g>
<g>
	<g>
		<path d="M245.4,34.4c-5.6,0-10.4,4.8-10.4,10.4v28.8c0,5.6,4.8,10.4,10.4,10.4c5.6,0,10.4-4.8,10.4-10.4V44.8
			C255.8,38.8,251.4,34.4,245.4,34.4z"/>
	</g>
</g>
<g>
	<g>
		<path d="M176.6,26c-5.6,0-10.4,4.8-10.4,10.4v28.8c0,5.6,4.8,10.4,10.4,10.4S187,70.8,187,65.2V36.4C187,30.8,182.2,26,176.6,26z"
			/>
	</g>
</g>
<g>
	<g>
		<path d="M212.6,0h-0.4c-5.6,0-10.4,4.4-10.4,10.4v60.8c0,5.6,4.4,10.4,10.4,10.4c5.6,0,10.4-4.4,10.4-10.4V19.6V10
			C222.2,4.8,217.8,0.4,212.6,0z"/>
	</g>
</g>
<g>
</g>
<g>
</g>
<g>
</g>
<g>
</g>
<g>
</g>
<g>
</g>
<g>
</g>
<g>
</g>
<g>
</g>
<g>
</g>
<g>
</g>
<g>
</g>
<g>
</g>
<g>
</g>
<g>
</g>
</svg>
